<?xml version="1.0" standalone="no"?>
<!DOCTYPE svg PUBLIC "-//W3C//DTD SVG 20010904//EN"
 "http://www.w3.org/TR/2001/REC-SVG-20010904/DTD/svg10.dtd">
<svg version="1.0" xmlns="http://www.w3.org/2000/svg"
 width="512.000000pt" height="512.000000pt" viewBox="0 0 512.000000 512.000000" preserveAspectRatio="xMidYMid meet">
  <g stroke="none">
    <path d="M334,7H177.4l-11.98,4.98L98.45,78.93l-4.99,11.99v330.16l4.99,12l66.96,66.96L177.4,505h157.24l11.98-4.96
      l66.96-66.96l4.96-12V90.92l-4.96-11.99l-66.96-66.96L334.63,7H334z M333.4,13.16c0.96,0.39,8.79,3.63,9.75,4.02
      c0.85,0.85,64.36,64.39,65.22,65.23c0.39,0.96,3.62,8.78,4,9.74c0,1.25,0,326.52,0,327.71c-0.39,0.96-3.61,8.78-4,9.75
      c-0.86,0.82-64.37,64.36-65.22,65.22c-0.96,0.4-8.8,3.63-9.75,4.02c-1.19,0-153.55,0-154.76,0c-0.97-0.38-8.79-3.61-9.76-4.02
      c-0.83-0.86-64.37-64.4-65.2-65.22c-0.42-0.97-3.64-8.79-4.05-9.75c0-1.19,0-326.46,0-327.71c0.41-0.96,3.63-8.78,4.05-9.74
      c0.83-0.84,64.37-64.38,65.2-65.23c0.97-0.39,8.79-3.63,9.76-4.02C179.84,13.16,332.21,13.16,333.4,13.16z"/>
    <path d="M306.56,123.08l0.18-0.05c0.61,0,1.11-0.49,1.11-1.09v-1.29c0-0.6-0.5-1.1-1.11-1.1h-5.01v-0.07h-14.89v0.03
      h-5.09c-0.63,0-1.11,0.48-1.11,1.09v1.28c0,0.61,0.48,1.11,1.11,1.11l0.17,0.06c2.69,0,4.87,2.17,4.87,4.89l0.05-0.21v45.65
      l-0.05-0.12c0,3.01-1.98,5.39-4.52,5.62h-52.56c-2.42-0.2-4.33-2.45-4.49-5.27v-45.96c0.16-2.55,2.26-4.58,4.85-4.58l0.17-0.05
      c0.6,0,1.1-0.49,1.1-1.09v-1.29c0-0.6-0.5-1.1-1.1-1.1h-5.02v-0.07h-14.88v0.03h-5.08c-0.61,0-1.12,0.48-1.12,1.09v1.28
      c0,0.61,0.5,1.11,1.12,1.11l0.17,0.06c2.67,0,4.86,2.17,4.86,4.89l0.04-0.21v113.53l-0.04-0.23c0,2.69-2.19,4.89-4.86,4.89
      l-0.17,0.06c-0.61,0-1.12,0.49-1.12,1.11v1.29c0,0.58,0.5,1.08,1.12,1.08h5.08v0.04h19.9c0.6,0,1.1-0.49,1.1-1.1v-1.29
      c0-0.61-0.5-1.13-1.1-1.13l-0.17-0.01c-2.59,0-4.7-2.04-4.85-4.56V191.8c0.16-2.56,1.73-4.66,3.83-5.15h53.89
      c2.2,0.52,3.85,2.81,3.85,5.54l0.05-0.14v49.21l-0.05-0.23c0,2.69-2.18,4.89-4.87,4.89l-0.17,0.06c-0.63,0-1.11,0.49-1.11,1.11
      v1.29c0,0.58,0.48,1.08,1.11,1.08h5.09v0.04h19.9c0.61,0,1.11-0.49,1.11-1.1v-1.29c0-0.61-0.5-1.13-1.11-1.13l-0.18-0.01
      c-2.58,0-4.69-2.04-4.83-4.56V127.65C301.88,125.11,303.98,123.08,306.56,123.08z"/>
    <path d="M347.53,280.43H324.6c-0.6,0-1.11,0.54-1.11,1.12v1.29c0,0.64,0.51,1.1,1.11,1.1l4.08,0.04h0.65
      c2.09,0,2.32,0.66,1.08,3.84l-35.45,87.41h-0.02c0,0-0.76,1.76-2.26,1.76c-1.36,0-2.28-1.44-2.46-1.72l-21.89-48.52l16.17-40.4
      c0,0,1.06-2.71,6.9-2.71l1.33-0.01c0.61,0,1.1-0.5,1.1-1.13v-1.29c0-0.59-0.49-1.1-1.1-1.1h-22.95c-0.6,0-1.11,0.51-1.11,1.1v1.29
      c0,0.63,0.5,1.13,1.11,1.13l4.09,0.01h0.63c2.14,0,2.36,0.67,1.1,3.85l-11.05,27.27c-0.16,0.21-0.41,0.45-0.8,0.45
      c-0.41,0-0.75-0.34-0.86-0.55l-12.8-28.3c-1.53-2.74-0.57-2.71,1.47-2.71h3.26l2.23-0.01c0.59,0,1.11-0.5,1.11-1.13v-1.29
      c0-0.59-0.51-1.1-1.11-1.1h-31.36c-0.63,0-1.14,0.51-1.14,1.1v1.29c0,0.63,0.52,1.13,1.14,1.13l1.32,0.01
      c4.33,0,5.49,2.84,5.49,2.84l23.04,50.45l-15.9,39.22c-0.39,0.49-1.09,1.31-2,1.31c-1.38,0-2.05-1.77-2.05-1.77
      s-0.07,0.08-0.16,0.24l-44.01-86.4c-0.99-2.48-3.12-5.89-1.1-5.89h3.27l2.24-0.01c0.59,0,1.11-0.5,1.11-1.13v-1.29
      c0-0.59-0.52-1.1-1.11-1.1h-31.35c-0.62,0-1.13,0.51-1.13,1.1v1.29c0,0.63,0.51,1.13,1.13,1.13l1.33,0.01
      c4.31,0,5.46,2.84,5.46,2.84l61.35,122.36l0.2,0.49c0,0,0.38,0.71,1.01,0.71c0.62,0,1.07-0.15,1.38-0.71v0.12l24.96-62.35
      l27.96,61.26l0.32,0.93c0,0,0.36,0.68,1.01,0.68c0.63,0,1.07-0.12,1.42-0.71c0.05-0.06,0.11-0.31,0.18-0.61l48.26-121.96
      c0,0,1.07-2.7,6.92-2.7l1.3-0.04c0.62,0,1.12-0.46,1.12-1.1v-1.29C348.65,280.97,348.15,280.43,347.53,280.43z"/>
    <g>
      <path d="M332.73,28.54l-5.09-0.03H184.36h-5.08L115,92.82v326.37l64.28,64.31h153.45L397,419.19V92.81L332.73,28.54z
         M383.34,408.46l-0.01,4.49l-56.19,56.2H185.12l-56.21-56.22V102.44v-4.46l56.21-56.22h4.48h133.06l4.49,0.01l56.2,56.21V408.46z"
        />
    </g>
    <path d="M306.56,123.08l0.18-0.05c0.6,0,1.11-0.49,1.11-1.11v-1.27c0-0.6-0.51-1.11-1.11-1.11h-5.01v-0.06h-14.89v0.03
      h-5.1c-0.63,0-1.12,0.48-1.12,1.09v1.28c0,0.61,0.49,1.11,1.12,1.11l0.17,0.06c2.69,0,4.87,2.17,4.87,4.88l0.06-0.21v45.65
      l-0.06-0.12c0,3-1.98,5.39-4.51,5.62h-52.56c-2.43-0.2-4.33-2.46-4.49-5.27v-45.96c0.16-2.55,2.26-4.58,4.85-4.58l0.16-0.05
      c0.62,0,1.12-0.49,1.12-1.11v-1.27c0-0.6-0.5-1.11-1.12-1.11h-5.01v-0.06h-14.88v0.03h-5.1c-0.6,0-1.1,0.48-1.1,1.09v1.28
      c0,0.61,0.5,1.11,1.1,1.11l0.18,0.06c2.68,0,4.87,2.17,4.87,4.88l0.04-0.21v113.54l-0.04-0.23c0,2.69-2.19,4.89-4.87,4.89
      l-0.18,0.06c-0.6,0-1.1,0.48-1.1,1.1v1.3c0,0.58,0.5,1.08,1.1,1.08h5.1v0.04h19.89c0.62,0,1.12-0.49,1.12-1.11v-1.28
      c0-0.61-0.5-1.13-1.12-1.13h-0.16c-2.59,0-4.7-2.04-4.85-4.56V191.8c0.16-2.56,1.73-4.66,3.83-5.15h53.87
      c2.22,0.52,3.86,2.81,3.86,5.54l0.06-0.15v49.22l-0.06-0.23c0,2.69-2.17,4.89-4.87,4.89l-0.17,0.06c-0.63,0-1.12,0.48-1.12,1.1v1.3
      c0,0.58,0.49,1.08,1.12,1.08h5.1v0.04h19.9c0.6,0,1.11-0.49,1.11-1.11v-1.28c0-0.61-0.51-1.13-1.11-1.13h-0.18
      c-2.58,0-4.69-2.04-4.83-4.56V127.65C301.88,125.1,303.98,123.08,306.56,123.08z"/>
    <path d="M347.52,280.43h-22.93c-0.59,0-1.11,0.54-1.11,1.12v1.29c0,0.64,0.53,1.1,1.11,1.1l4.09,0.04h0.65
      c2.08,0,2.31,0.64,1.08,3.84l-35.45,87.41h-0.02c0,0-0.76,1.76-2.26,1.76c-1.36,0-2.28-1.44-2.47-1.73l-21.88-48.52l16.17-40.4
      c0,0,1.06-2.71,6.9-2.71l1.33-0.01c0.61,0,1.09-0.5,1.09-1.13v-1.28c0-0.59-0.48-1.1-1.09-1.1h-22.95c-0.6,0-1.12,0.5-1.12,1.1
      v1.28c0,0.63,0.52,1.13,1.12,1.13l4.09,0.01h0.63c2.14,0,2.34,0.67,1.1,3.85l-11.05,27.27c-0.16,0.21-0.41,0.45-0.81,0.45
      c-0.4,0-0.74-0.34-0.85-0.55l-12.79-28.3c-1.53-2.74-0.58-2.71,1.45-2.71h3.27l2.22-0.01c0.6,0,1.12-0.5,1.12-1.13v-1.28
      c0-0.59-0.51-1.1-1.12-1.1h-31.36c-0.62,0-1.13,0.5-1.13,1.1v1.28c0,0.63,0.52,1.13,1.13,1.13l1.33,0.01
      c4.31,0,5.48,2.82,5.48,2.82l23.05,50.47l-15.9,39.22c-0.39,0.49-1.09,1.31-2,1.31c-1.38,0-2.05-1.79-2.05-1.79
      s-0.07,0.09-0.16,0.25l-44.01-86.4c-1-2.48-3.12-5.89-1.1-5.89h3.27l2.24-0.01c0.59,0,1.11-0.5,1.11-1.13v-1.28
      c0-0.59-0.52-1.1-1.11-1.1h-31.35c-0.62,0-1.13,0.5-1.13,1.1v1.28c0,0.63,0.51,1.13,1.13,1.13l1.31,0.01
      c4.31,0,5.48,2.82,5.48,2.82l61.35,122.37l0.2,0.5c0,0,0.38,0.71,1.01,0.71c0.62,0,1.07-0.15,1.38-0.71v0.12l24.96-62.35
      l27.96,61.26l0.32,0.93c0,0,0.36,0.67,1.01,0.67c0.63,0,1.07-0.11,1.42-0.7c0.03-0.07,0.11-0.31,0.18-0.61l48.26-121.96
      c0,0,1.07-2.7,6.92-2.7l1.29-0.04c0.63,0,1.14-0.46,1.14-1.1v-1.29C348.65,280.97,348.15,280.43,347.52,280.43z"/>
  </g>
</svg>
